# xmcd
#
# Track frame offsets:
#	150
#	17308
#	30588
#	46304
#	64038
#	82955
#	101604
#	120696
#	135092
#	152754
#	166185
#	183271
#	199464
#	214606
#	231961
#	249362
#	265976
#	281779
#	299350
#	317645
#	331656
#
# Disc length: 4629 seconds
#
# Revision: 1
# Processed by: cddbd v1.5.2PL0 Copyright (c) Steve Scherf et al.
# Submitted via: audiograbber 1.83.01
#
DISCID=1b121315
DTITLE=XMIX - Mainstream and Rock
DYEAR=2010
DGENRE=rOCK
TTITLE0=Julian Casablancas - Out Of The Blue 226 BPM
TTITLE1=The Bravery - Hateful 226 BPM
TTITLE2=HIM - Heartkiller 154 BPM
TTITLE3=Muse - Resistance 135 BPM
TTITLE4=Melissa Etheridge - Fearless Love 133 BPM
TTITLE5=Bon Jovi - Superman Tonight 130 BPM
TTITLE6=Mike Snow - Silvia 120 BPM
TTITLE7=Collective Soul - You 112 BPM
TTITLE8=Lady Antebellum - Need You Now 108 BPM
TTITLE9=Violent Soho - Jesus Stole My Girlfriend 87 BPM
TTITLE10=AFI - Beautiful Theives 86 BPM
TTITLE11=The Used - Born To Quit 85 BPM
TTITLE12=Vedera - Satisfy 84 BPM
TTITLE13=Owl City - Vanilla Twilight 83 BPM
TTITLE14=Broken Bells - The High Road 80 BPM
TTITLE15=Breaking Benjamin - Give Me Sign (Forever and Ever)  78 BPM
TTITLE16=Theory Of A Deadman - All Or Nothing 76 BPM
TTITLE17=Colbie Caillat - I Never Told You 72 BPM
TTITLE18=Rev Theory - Broken Bones 67 BPM
TTITLE19=Corinne Bailey Rae - I'd Do It All Again 66 BPM
TTITLE20=Eels - A Line In The Dirt 65 BPM
EXTD=
EXTT0=
EXTT1=
EXTT2=
EXTT3=
EXTT4=
EXTT5=
EXTT6=
EXTT7=
EXTT8=
EXTT9=
EXTT10=
EXTT11=
EXTT12=
EXTT13=
EXTT14=
EXTT15=
EXTT16=
EXTT17=
EXTT18=
EXTT19=
EXTT20=
PLAYORDER=
